<?xml version="1.0" standalone="no"?>
<!DOCTYPE svg PUBLIC "-//W3C//DTD SVG 20010904//EN"
 "http://www.w3.org/TR/2001/REC-SVG-20010904/DTD/svg10.dtd">
<svg version="1.0" xmlns="http://www.w3.org/2000/svg"
 width="3800.000000pt" height="3800.000000pt" viewBox="0 0 3800.000000 3800.000000"
 preserveAspectRatio="xMidYMid meet">
<metadata>
Created by potrace 1.11, written by Peter Selinger 2001-2013
</metadata>
<g transform="translate(0.000000,3800.000000) scale(0.100000,-0.100000)"
fill="#000000" stroke="none">
<path d="M18400 37984 c-25 -2 -119 -8 -210 -14 -1265 -84 -2562 -437 -3710
-1011 -760 -381 -1411 -816 -2073 -1389 -93 -80 -181 -155 -195 -168 l-27 -23
50 -45 c700 -634 1647 -1254 2563 -1678 45 -21 84 -41 87 -46 2 -4 -98 -43
-223 -88 -829 -294 -1505 -608 -2207 -1024 -1145 -680 -2138 -1558 -2887
-2553 -934 -1240 -1472 -2628 -1589 -4100 -9 -111 -14 -1127 -18 -3895 l-6
-3744 -166 -126 c-629 -476 -1161 -1006 -1599 -1595 -828 -1110 -1318 -2332
-1494 -3718 -13 -104 -27 -192 -32 -196 -5 -4 -55 -43 -111 -85 -292 -221
-488 -528 -565 -881 -17 -80 -17 -448 1 -530 57 -269 184 -512 368 -706 189
-198 414 -330 682 -401 101 -26 138 -31 286 -35 270 -8 448 28 670 136 384
186 661 527 767 946 21 82 23 113 23 330 -1 227 -2 245 -27 335 -77 282 -194
477 -421 702 l-117 116 10 94 c49 435 180 980 340 1409 232 623 571 1222 979
1729 154 192 378 440 397 440 10 0 13 -353 17 -1607 5 -1792 6 -1829 78 -2313
337 -2265 1744 -4345 3929 -5805 961 -642 2041 -1148 3194 -1495 126 -38 230
-71 232 -73 2 -2 -15 -50 -38 -107 -142 -362 -155 -733 -38 -1091 120 -367
388 -697 726 -893 222 -129 458 -196 744 -212 l116 -7 71 -106 c40 -58 107
-149 150 -201 97 -116 816 -850 1625 -1658 l604 -603 1005 1008 c1188 1192
1224 1230 1375 1453 l77 115 126 26 c324 68 578 200 804 418 301 291 473 653
495 1041 17 284 -29 524 -149 794 -27 60 -48 110 -46 111 1 1 112 39 247 85
614 208 1120 417 1640 676 1650 824 3011 1989 3935 3369 135 201 302 477 412
680 476 879 772 1830 878 2820 27 250 34 718 39 2569 3 1000 7 1821 10 1823
15 15 370 -439 533 -682 597 -893 967 -1990 1029 -3047 l7 -118 -124 -128
c-209 -216 -307 -385 -386 -667 -22 -77 -26 -116 -30 -280 -6 -225 9 -343 61
-500 117 -349 366 -642 686 -809 123 -64 276 -119 391 -141 113 -21 432 -21
537 1 231 47 461 160 656 323 224 188 390 469 464 786 23 101 22 437 -1 557
-73 368 -296 693 -632 920 l-80 54 -7 95 c-39 503 -104 928 -207 1344 -255
1027 -689 1949 -1316 2790 -239 321 -441 553 -759 870 -249 248 -433 412 -688
614 l-148 116 -1 1610 c-1 886 -5 2425 -9 3420 -8 2009 -3 1843 -76 2315 -223
1434 -879 2811 -1899 3985 -885 1018 -1968 1847 -3255 2490 -372 186 -697 329
-1115 490 -181 69 -602 219 -692 246 -24 6 -43 16 -43 21 0 4 99 57 220 118
807 404 1521 882 2183 1462 75 66 137 126 137 134 0 25 -408 368 -694 582
-1514 1135 -3292 1826 -5136 1997 -315 29 -487 35 -925 33 -242 -1 -460 -3
-485 -4z m4325 -7737 c886 -89 1588 -274 2240 -591 988 -480 1638 -1167 1836
-1940 56 -220 52 -50 56 -2361 4 -2212 4 -2213 -38 -2419 -94 -461 -408 -969
-831 -1344 -826 -732 -2030 -1180 -3416 -1272 -215 -14 -6782 -14 -6998 1
-931 61 -1807 292 -2519 663 -1034 540 -1662 1312 -1754 2158 -15 134 -15
4145 -1 4289 41 403 221 818 516 1189 94 119 367 389 499 494 831 662 2009
1070 3311 1145 76 5 1667 8 3534 7 3119 -2 3409 -3 3565 -19z m3596 -12297
c329 -110 539 -396 539 -737 0 -137 -21 -225 -82 -353 -45 -92 -61 -115 -142
-195 -175 -173 -354 -244 -591 -232 -188 9 -352 78 -486 204 -118 112 -189
230 -228 378 -28 107 -29 281 -1 388 77 301 331 530 645 581 17 2 80 3 141 1
92 -3 127 -9 205 -35z m-1379 -2738 c271 -63 504 -185 694 -365 178 -168 304
-364 379 -590 76 -230 70 9 70 -2657 0 -2666 6 -2427 -70 -2657 -161 -484
-564 -842 -1078 -955 l-102 -23 -5395 0 c-5162 0 -5399 1 -5485 18 -197 40
-362 105 -511 202 -353 229 -573 560 -652 980 -15 82 -17 279 -20 2335 -3
2265 -1 2429 33 2596 61 300 242 605 474 798 236 197 481 301 796 339 17 2
2447 4 5400 3 l5370 -1 97 -23z m-4801 -12648 l614 -6 -697 -697 -698 -696
-698 697 -697 698 410 3 c225 1 577 3 781 5 204 1 647 -1 985 -4z"/>
<path d="M23794 25559 c-887 -78 -1554 -865 -1476 -1741 14 -160 32 -249 78
-388 79 -239 206 -442 394 -630 187 -187 391 -315 630 -394 196 -65 290 -80
515 -80 169 0 216 4 304 23 346 74 603 211 842 450 239 240 376 496 450 842
30 138 33 435 6 576 -41 217 -138 458 -252 628 -329 489 -906 765 -1491 714z"/>
<path d="M13746 25540 c-311 -57 -610 -208 -834 -424 -250 -241 -398 -504
-473 -838 -33 -145 -38 -444 -11 -603 114 -669 623 -1191 1295 -1327 160 -33
462 -32 617 1 659 140 1139 617 1282 1274 19 88 22 132 22 322 0 206 -1 227
-28 340 -48 205 -117 371 -224 535 -237 366 -598 614 -1034 711 -140 31 -463
36 -612 9z"/>
<path d="M21925 22014 c-1298 -192 -2839 -256 -4330 -179 -479 24 -1237 84
-1570 124 -38 5 -71 8 -72 7 -4 -3 -25 -247 -21 -251 6 -7 300 -38 603 -64
1889 -166 3617 -137 5309 91 l238 32 -6 56 c-16 145 -29 200 -45 199 -9 -1
-56 -8 -106 -15z"/>
<path d="M16282 12367 l-92 -92 0 -335 0 -334 47 -48 47 -48 -47 -48 -47 -48
0 -335 0 -334 98 -98 97 -97 468 0 468 0 52 49 52 50 -50 50 -49 51 -186 0
-186 0 -49 -50 -49 -49 -52 49 -53 50 -185 0 -186 0 0 330 0 331 -47 50 -46
50 46 47 47 48 0 332 0 332 188 0 188 0 44 45 c24 25 49 45 55 45 6 0 31 -20
55 -45 l44 -45 186 0 186 0 49 50 49 50 -44 45 -44 45 -481 0 -480 0 -93 -93z"/>
<path d="M19712 12367 l-92 -92 0 -334 0 -334 46 -49 46 -50 -46 -47 -46 -47
0 -334 0 -334 42 -43 c23 -24 47 -43 54 -43 6 0 30 20 53 45 l41 45 0 330 0
330 188 0 188 0 49 50 49 50 -44 45 -44 45 -193 0 -193 0 0 335 0 335 188 0
188 0 44 45 c24 25 49 45 55 45 6 0 31 -20 55 -45 l44 -45 188 0 188 0 -2
-332 -3 -333 -191 -3 -190 -2 -44 -45 -44 -45 47 -48 47 -48 0 -96 0 -96 141
-236 142 -236 48 0 49 0 0 94 0 94 -140 234 -140 233 138 3 137 3 98 97 97 97
0 335 0 335 -93 93 -92 92 -480 0 -480 0 -93 -93z"/>
<path d="M21422 12367 l-92 -92 0 -334 0 -334 46 -49 46 -50 -46 -47 -46 -47
0 -335 0 -334 98 -98 97 -97 468 0 468 0 52 49 52 50 -50 50 -49 51 -186 0
-186 0 -49 -50 -49 -49 -52 49 -53 50 -185 0 -186 0 0 330 0 330 188 0 188 0
49 50 49 50 -44 45 -44 45 -193 0 -193 0 0 335 0 335 188 0 188 0 44 45 c24
25 49 45 55 45 6 0 31 -20 55 -45 l44 -45 186 0 186 0 49 50 49 50 -44 45 -44
45 -481 0 -480 0 -93 -93z"/>
<path d="M18002 11507 l-92 -92 0 -335 0 -335 98 -98 97 -97 469 0 469 0 98
97 99 97 0 336 0 335 -93 93 -92 92 -196 0 -195 0 -44 -45 -44 -45 49 -50 49
-50 188 0 188 0 0 -330 0 -330 -188 0 -188 0 -49 -50 -49 -49 -52 49 -53 50
-185 0 -186 0 0 330 0 330 188 0 188 0 49 50 49 50 -44 45 -44 45 -196 0 -195
0 -93 -93z"/>
<path d="M22040 11555 l-44 -45 49 -50 49 -50 186 0 186 0 49 50 49 50 -44 45
-44 45 -196 0 -196 0 -44 -45z"/>
</g>
</svg>
